<svg xmlns="http://www.w3.org/2000/svg" viewBox="0 0 180 400" fill="none"><path d="M96 396 C88 300 74 210 94 150 C100 120 88 96 90 74" fill="none" stroke="#C46A45" stroke-width="2.0" stroke-linecap="round" stroke-linejoin="round"/><path d="M90 74 L39.2 62.7" fill="none" stroke="#C46A45" stroke-width="2.0" stroke-linecap="round" stroke-linejoin="round"/><path d="M39.2 62.7 l-7.0 0.4" fill="none" stroke="#C46A45" stroke-width="2.0" stroke-linecap="round" stroke-linejoin="round"/><path d="M39.2 62.7 l-6.8 -1.5" fill="none" stroke="#C46A45" stroke-width="2.0" stroke-linecap="round" stroke-linejoin="round"/><path d="M39.2 62.7 l-6.2 -3.3" fill="none" stroke="#C46A45" stroke-width="2.0" stroke-linecap="round" stroke-linejoin="round"/><path d="M90 74 L38.8 46.8" fill="none" stroke="#C46A45" stroke-width="2.0" stroke-linecap="round" stroke-linejoin="round"/><path d="M38.8 46.8 l-6.8 -1.5" fill="none" stroke="#C46A45" stroke-width="2.0" stroke-linecap="round" stroke-linejoin="round"/><path d="M38.8 46.8 l-6.2 -3.3" fill="none" stroke="#C46A45" stroke-width="2.0" stroke-linecap="round" stroke-linejoin="round"/><path d="M38.8 46.8 l-5.0 -4.9" fill="none" stroke="#C46A45" stroke-width="2.0" stroke-linecap="round" stroke-linejoin="round"/><path d="M90 74 L52.3 38.2" fill="none" stroke="#C46A45" stroke-width="2.0" stroke-linecap="round" stroke-linejoin="round"/><path d="M52.3 38.2 l-6.2 -3.2" fill="none" stroke="#C46A45" stroke-width="2.0" stroke-linecap="round" stroke-linejoin="round"/><path d="M52.3 38.2 l-5.1 -4.8" fill="none" stroke="#C46A45" stroke-width="2.0" stroke-linecap="round" stroke-linejoin="round"/><path d="M52.3 38.2 l-3.6 -6.0" fill="none" stroke="#C46A45" stroke-width="2.0" stroke-linecap="round" stroke-linejoin="round"/><path d="M90 74 L60.1 24.3" fill="none" stroke="#C46A45" stroke-width="2.0" stroke-linecap="round" stroke-linejoin="round"/><path d="M60.1 24.3 l-5.1 -4.8" fill="none" stroke="#C46A45" stroke-width="2.0" stroke-linecap="round" stroke-linejoin="round"/><path d="M60.1 24.3 l-3.6 -6.0" fill="none" stroke="#C46A45" stroke-width="2.0" stroke-linecap="round" stroke-linejoin="round"/><path d="M60.1 24.3 l-1.8 -6.8" fill="none" stroke="#C46A45" stroke-width="2.0" stroke-linecap="round" stroke-linejoin="round"/><path d="M90 74 L76.1 23.9" fill="none" stroke="#C46A45" stroke-width="2.0" stroke-linecap="round" stroke-linejoin="round"/><path d="M76.1 23.9 l-3.7 -6.0" fill="none" stroke="#C46A45" stroke-width="2.0" stroke-linecap="round" stroke-linejoin="round"/><path d="M76.1 23.9 l-1.9 -6.7" fill="none" stroke="#C46A45" stroke-width="2.0" stroke-linecap="round" stroke-linejoin="round"/><path d="M76.1 23.9 l0.1 -7.0" fill="none" stroke="#C46A45" stroke-width="2.0" stroke-linecap="round" stroke-linejoin="round"/><path d="M90 74 L90.0 16.0" fill="none" stroke="#C46A45" stroke-width="2.0" stroke-linecap="round" stroke-linejoin="round"/><path d="M90.0 16.0 l-1.9 -6.7" fill="none" stroke="#C46A45" stroke-width="2.0" stroke-linecap="round" stroke-linejoin="round"/><path d="M90.0 16.0 l0.0 -7.0" fill="none" stroke="#C46A45" stroke-width="2.0" stroke-linecap="round" stroke-linejoin="round"/><path d="M90.0 16.0 l1.9 -6.7" fill="none" stroke="#C46A45" stroke-width="2.0" stroke-linecap="round" stroke-linejoin="round"/><path d="M90 74 L103.9 23.9" fill="none" stroke="#C46A45" stroke-width="2.0" stroke-linecap="round" stroke-linejoin="round"/><path d="M103.9 23.9 l-0.1 -7.0" fill="none" stroke="#C46A45" stroke-width="2.0" stroke-linecap="round" stroke-linejoin="round"/><path d="M103.9 23.9 l1.9 -6.7" fill="none" stroke="#C46A45" stroke-width="2.0" stroke-linecap="round" stroke-linejoin="round"/><path d="M103.9 23.9 l3.7 -6.0" fill="none" stroke="#C46A45" stroke-width="2.0" stroke-linecap="round" stroke-linejoin="round"/><path d="M90 74 L119.9 24.3" fill="none" stroke="#C46A45" stroke-width="2.0" stroke-linecap="round" stroke-linejoin="round"/><path d="M119.9 24.3 l1.8 -6.8" fill="none" stroke="#C46A45" stroke-width="2.0" stroke-linecap="round" stroke-linejoin="round"/><path d="M119.9 24.3 l3.6 -6.0" fill="none" stroke="#C46A45" stroke-width="2.0" stroke-linecap="round" stroke-linejoin="round"/><path d="M119.9 24.3 l5.1 -4.8" fill="none" stroke="#C46A45" stroke-width="2.0" stroke-linecap="round" stroke-linejoin="round"/><path d="M90 74 L127.7 38.2" fill="none" stroke="#C46A45" stroke-width="2.0" stroke-linecap="round" stroke-linejoin="round"/><path d="M127.7 38.2 l3.6 -6.0" fill="none" stroke="#C46A45" stroke-width="2.0" stroke-linecap="round" stroke-linejoin="round"/><path d="M127.7 38.2 l5.1 -4.8" fill="none" stroke="#C46A45" stroke-width="2.0" stroke-linecap="round" stroke-linejoin="round"/><path d="M127.7 38.2 l6.2 -3.2" fill="none" stroke="#C46A45" stroke-width="2.0" stroke-linecap="round" stroke-linejoin="round"/><path d="M90 74 L141.2 46.8" fill="none" stroke="#C46A45" stroke-width="2.0" stroke-linecap="round" stroke-linejoin="round"/><path d="M141.2 46.8 l5.0 -4.9" fill="none" stroke="#C46A45" stroke-width="2.0" stroke-linecap="round" stroke-linejoin="round"/><path d="M141.2 46.8 l6.2 -3.3" fill="none" stroke="#C46A45" stroke-width="2.0" stroke-linecap="round" stroke-linejoin="round"/><path d="M141.2 46.8 l6.8 -1.5" fill="none" stroke="#C46A45" stroke-width="2.0" stroke-linecap="round" stroke-linejoin="round"/><path d="M90 74 L140.8 62.7" fill="none" stroke="#C46A45" stroke-width="2.0" stroke-linecap="round" stroke-linejoin="round"/><path d="M140.8 62.7 l6.2 -3.3" fill="none" stroke="#C46A45" stroke-width="2.0" stroke-linecap="round" stroke-linejoin="round"/><path d="M140.8 62.7 l6.8 -1.5" fill="none" stroke="#C46A45" stroke-width="2.0" stroke-linecap="round" stroke-linejoin="round"/><path d="M140.8 62.7 l7.0 0.4" fill="none" stroke="#C46A45" stroke-width="2.0" stroke-linecap="round" stroke-linejoin="round"/><path d="M88.0 210.0 Q73.3 194.3 51.7 193.1 Q66.5 208.8 88.0 210.0Z M88.0 210.0 L51.7 193.1" fill="none" stroke="#C46A45" stroke-width="2.0" stroke-linecap="round" stroke-linejoin="round"/><path d="M98.0 250.0 Q116.4 250.8 129.9 238.4 Q111.6 237.6 98.0 250.0Z M98.0 250.0 L129.9 238.4" fill="none" stroke="#C46A45" stroke-width="2.0" stroke-linecap="round" stroke-linejoin="round"/></svg>