<svg xmlns="http://www.w3.org/2000/svg" viewBox="0 0 320 170" fill="none"><path d="M14 150 C110 128 210 78 306 26" fill="none" stroke="#C46A45" stroke-width="2.0" stroke-linecap="round" stroke-linejoin="round"/><path d="M57.9 138.2 Q75.0 120.4 68.7 96.6 Q51.7 114.3 57.9 138.2Z M57.9 138.2 L68.7 96.6" fill="none" stroke="#C46A45" stroke-width="2.0" stroke-linecap="round" stroke-linejoin="round"/><path d="M57.9 138.2 Q66.4 161.3 90.5 166.2 Q82.0 143.0 57.9 138.2Z M57.9 138.2 L90.5 166.2" fill="none" stroke="#C46A45" stroke-width="2.0" stroke-linecap="round" stroke-linejoin="round"/><path d="M102.2 123.0 Q117.0 105.6 110.0 83.8 Q95.1 101.2 102.2 123.0Z M102.2 123.0 L110.0 83.8" fill="none" stroke="#C46A45" stroke-width="2.0" stroke-linecap="round" stroke-linejoin="round"/><path d="M102.2 123.0 Q111.3 144.0 134.0 147.2 Q124.9 126.2 102.2 123.0Z M102.2 123.0 L134.0 147.2" fill="none" stroke="#C46A45" stroke-width="2.0" stroke-linecap="round" stroke-linejoin="round"/><path d="M146.6 105.1 Q159.6 88.3 152.2 68.5 Q139.2 85.2 146.6 105.1Z M146.6 105.1 L152.2 68.5" fill="none" stroke="#C46A45" stroke-width="2.0" stroke-linecap="round" stroke-linejoin="round"/><path d="M146.6 105.1 Q156.0 124.1 177.1 126.1 Q167.7 107.1 146.6 105.1Z M146.6 105.1 L177.1 126.1" fill="none" stroke="#C46A45" stroke-width="2.0" stroke-linecap="round" stroke-linejoin="round"/><path d="M191.2 84.9 Q202.6 69.1 195.0 51.2 Q183.6 67.0 191.2 84.9Z M191.2 84.9 L195.0 51.2" fill="none" stroke="#C46A45" stroke-width="2.0" stroke-linecap="round" stroke-linejoin="round"/><path d="M191.2 84.9 Q200.4 102.1 219.8 103.2 Q210.6 86.0 191.2 84.9Z M191.2 84.9 L219.8 103.2" fill="none" stroke="#C46A45" stroke-width="2.0" stroke-linecap="round" stroke-linejoin="round"/><path d="M235.6 63.1 Q245.6 48.4 238.3 32.2 Q228.3 46.9 235.6 63.1Z M235.6 63.1 L238.3 32.2" fill="none" stroke="#C46A45" stroke-width="2.0" stroke-linecap="round" stroke-linejoin="round"/><path d="M235.6 63.1 Q244.4 78.5 262.2 79.1 Q253.3 63.6 235.6 63.1Z M235.6 63.1 L262.2 79.1" fill="none" stroke="#C46A45" stroke-width="2.0" stroke-linecap="round" stroke-linejoin="round"/><path d="M279.7 40.1 Q288.5 26.7 281.6 12.2 Q272.9 25.6 279.7 40.1Z M279.7 40.1 L281.6 12.2" fill="none" stroke="#C46A45" stroke-width="2.0" stroke-linecap="round" stroke-linejoin="round"/><path d="M279.7 40.1 Q287.9 53.9 304.0 54.1 Q295.8 40.3 279.7 40.1Z M279.7 40.1 L304.0 54.1" fill="none" stroke="#C46A45" stroke-width="2.0" stroke-linecap="round" stroke-linejoin="round"/><path d="M306.0 26.0 Q328.8 26.1 341.2 6.9 Q318.3 6.8 306.0 26.0Z M306.0 26.0 L341.2 6.9" fill="none" stroke="#C46A45" stroke-width="2.0" stroke-linecap="round" stroke-linejoin="round"/></svg>