<svg xmlns="http://www.w3.org/2000/svg" viewBox="0 0 340 340" fill="none"><path d="M24 316 C40 200 120 96 322 40" fill="none" stroke="#C46A45" stroke-width="2.0" stroke-linecap="round" stroke-linejoin="round"/><path d="M34.6 268.1 Q55.8 278.8 74.4 264.0 Q53.2 253.3 34.6 268.1Z M34.6 268.1 L74.4 264.0" fill="none" stroke="#C46A45" stroke-width="2.0" stroke-linecap="round" stroke-linejoin="round"/><path d="M57.2 215.8 Q55.9 192.1 33.9 183.4 Q35.2 207.1 57.2 215.8Z M57.2 215.8 L33.9 183.4" fill="none" stroke="#C46A45" stroke-width="2.0" stroke-linecap="round" stroke-linejoin="round"/><path d="M92.4 167.0 Q107.2 185.6 130.3 179.8 Q115.4 161.3 92.4 167.0Z M92.4 167.0 L130.3 179.8" fill="none" stroke="#C46A45" stroke-width="2.0" stroke-linecap="round" stroke-linejoin="round"/><path d="M141.4 122.7 Q149.8 100.5 133.1 83.5 Q124.7 105.7 141.4 122.7Z M141.4 122.7 L133.1 83.5" fill="none" stroke="#C46A45" stroke-width="2.0" stroke-linecap="round" stroke-linejoin="round"/><path d="M205.8 83.5 Q212.8 106.2 236.4 109.3 Q229.3 86.6 205.8 83.5Z M205.8 83.5 L236.4 109.3" fill="none" stroke="#C46A45" stroke-width="2.0" stroke-linecap="round" stroke-linejoin="round"/><path d="M265.0 58.2 Q279.3 39.2 268.1 18.3 Q253.8 37.3 265.0 58.2Z M265.0 58.2 L268.1 18.3" fill="none" stroke="#C46A45" stroke-width="2.0" stroke-linecap="round" stroke-linejoin="round"/></svg>